<svg width="24" height="24" viewBox="0 0 24 24" fill="none" xmlns="http://www.w3.org/2000/svg">
<path d="M14.994 1.99915H5.9977C5.46749 1.99915 4.95899 2.20977 4.58408 2.58469C4.20916 2.9596 3.99854 3.4681 3.99854 3.99831V19.9916C3.99854 20.5219 4.20916 21.0304 4.58408 21.4053C4.95899 21.7802 5.46749 21.9908 5.9977 21.9908H17.9927C18.5229 21.9908 19.0314 21.7802 19.4063 21.4053C19.7812 21.0304 19.9919 20.5219 19.9919 19.9916V6.99706L14.994 1.99915Z" stroke="#2563EB" stroke-width="1.99917" stroke-linecap="round" stroke-linejoin="round"/>
<path d="M13.9941 1.99915V5.99748C13.9941 6.52769 14.2048 7.03619 14.5797 7.4111C14.9546 7.78602 15.4631 7.99665 15.9933 7.99665H19.9916" stroke="#2563EB" stroke-width="1.99917" stroke-linecap="round" stroke-linejoin="round"/>
<path d="M9.99658 8.99622H7.99658" stroke="#2563EB" stroke-width="1.99917" stroke-linecap="round" stroke-linejoin="round"/>
<path d="M15.9932 12.9946H7.99658" stroke="#2563EB" stroke-width="1.99917" stroke-linecap="round" stroke-linejoin="round"/>
<path d="M15.9932 16.9929H7.99658" stroke="#2563EB" stroke-width="1.99917" stroke-linecap="round" stroke-linejoin="round"/>
</svg>
