<svg width="24" height="24" viewBox="0 0 24 24" fill="none" xmlns="http://www.w3.org/2000/svg">
<path d="M18.9919 6.99711V3.99836C18.9919 3.73326 18.8866 3.47901 18.6991 3.29155C18.5116 3.10409 18.2574 2.99878 17.9923 2.99878H4.9977C4.46749 2.99878 3.95899 3.20941 3.58408 3.58432C3.20916 3.95924 2.99854 4.46773 2.99854 4.99795C2.99854 5.52816 3.20916 6.03665 3.58408 6.41157C3.95899 6.78649 4.46749 6.99711 4.9977 6.99711H19.9915C20.2566 6.99711 20.5108 7.10243 20.6983 7.28988C20.8857 7.47734 20.991 7.73159 20.991 7.9967V11.995M20.991 11.995H17.9923C17.4621 11.995 16.9536 12.2057 16.5787 12.5806C16.2037 12.9555 15.9931 13.464 15.9931 13.9942C15.9931 14.5244 16.2037 15.0329 16.5787 15.4078C16.9536 15.7827 17.4621 15.9934 17.9923 15.9934H20.991C21.2561 15.9934 21.5104 15.888 21.6978 15.7006C21.8853 15.5131 21.9906 15.2589 21.9906 14.9938V12.9946C21.9906 12.7295 21.8853 12.4753 21.6978 12.2878C21.5104 12.1003 21.2561 11.995 20.991 11.995Z" stroke="#06B6D4" stroke-width="1.99917" stroke-linecap="round" stroke-linejoin="round"/>
<path d="M2.99854 4.99792V18.9921C2.99854 19.5223 3.20916 20.0308 3.58408 20.4057C3.95899 20.7806 4.46749 20.9913 4.9977 20.9913H19.9915C20.2566 20.9913 20.5108 20.8859 20.6983 20.6985C20.8857 20.511 20.991 20.2568 20.991 19.9917V15.9933" stroke="#06B6D4" stroke-width="1.99917" stroke-linecap="round" stroke-linejoin="round"/>
</svg>
