<svg width="28" height="28" viewBox="0 0 28 28" fill="none" xmlns="http://www.w3.org/2000/svg">
<path d="M21.5964 14.1067L15.9585 12.0234L13.8818 6.38113C13.7588 6.04702 13.5363 5.75867 13.2443 5.555C12.9522 5.35132 12.6048 5.24211 12.2488 5.24211C11.8927 5.24211 11.5453 5.35132 11.2533 5.555C10.9613 5.75867 10.7388 6.04702 10.6158 6.38113L8.52589 12.0234L2.88364 14.1001C2.54953 14.2231 2.26119 14.4456 2.05751 14.7376C1.85383 15.0296 1.74463 15.3771 1.74463 15.7331C1.74463 16.0892 1.85383 16.4366 2.05751 16.7286C2.26119 17.0206 2.54953 17.2431 2.88364 17.3661L8.52589 19.456L10.6027 25.0982C10.7256 25.4324 10.9481 25.7207 11.2402 25.9244C11.5322 26.1281 11.8796 26.2373 12.2356 26.2373C12.5917 26.2373 12.9391 26.1281 13.2311 25.9244C13.5231 25.7207 13.7457 25.4324 13.8686 25.0982L15.9585 19.456L21.6008 17.3792C21.9349 17.2563 22.2232 17.0337 22.4269 16.7417C22.6306 16.4497 22.7398 16.1023 22.7398 15.7462C22.7398 15.3902 22.6306 15.0428 22.4269 14.7508C22.2232 14.4587 21.9349 14.2362 21.6008 14.1133L21.5964 14.1067ZM14.9748 17.9498C14.8561 17.9935 14.7483 18.0625 14.6589 18.152C14.5694 18.2414 14.5004 18.3492 14.4567 18.4679L12.2422 24.4676L10.0321 18.4723C9.98841 18.3523 9.91901 18.2434 9.82875 18.1531C9.73849 18.0629 9.62956 17.9935 9.50962 17.9498L3.51432 15.7397L9.50962 13.5296C9.62956 13.4859 9.73849 13.4165 9.82875 13.3262C9.91901 13.236 9.98841 13.127 10.0321 13.0071L12.2422 7.01181L14.4523 13.0071C14.4961 13.1258 14.565 13.2336 14.6545 13.323C14.7439 13.4125 14.8517 13.4815 14.9704 13.5252L20.9701 15.7397L14.9748 17.9498ZM15.7399 4.37213C15.7399 4.14022 15.832 3.9178 15.996 3.75382C16.16 3.58983 16.3824 3.4977 16.6143 3.4977H18.3632V1.74885C18.3632 1.51693 18.4553 1.29452 18.6193 1.13053C18.7833 0.966547 19.0057 0.87442 19.2376 0.87442C19.4695 0.87442 19.6919 0.966547 19.8559 1.13053C20.0199 1.29452 20.112 1.51693 20.112 1.74885V3.4977H21.8609C22.0928 3.4977 22.3152 3.58983 22.4792 3.75382C22.6432 3.9178 22.7353 4.14022 22.7353 4.37213C22.7353 4.60404 22.6432 4.82646 22.4792 4.99044C22.3152 5.15443 22.0928 5.24656 21.8609 5.24656H20.112V6.99541C20.112 7.22732 20.0199 7.44974 19.8559 7.61373C19.6919 7.77771 19.4695 7.86984 19.2376 7.86984C19.0057 7.86984 18.7833 7.77771 18.6193 7.61373C18.4553 7.44974 18.3632 7.22732 18.3632 6.99541V5.24656H16.6143C16.3824 5.24656 16.16 5.15443 15.996 4.99044C15.832 4.82646 15.7399 4.60404 15.7399 4.37213ZM27.1075 9.61869C27.1075 9.85061 27.0153 10.073 26.8514 10.237C26.6874 10.401 26.465 10.4931 26.233 10.4931H25.3586V11.3675C25.3586 11.5995 25.2665 11.8219 25.1025 11.9859C24.9385 12.1498 24.7161 12.242 24.4842 12.242C24.2523 12.242 24.0299 12.1498 23.8659 11.9859C23.7019 11.8219 23.6098 11.5995 23.6098 11.3675V10.4931H22.7353C22.5034 10.4931 22.281 10.401 22.117 10.237C21.953 10.073 21.8609 9.85061 21.8609 9.61869C21.8609 9.38678 21.953 9.16437 22.117 9.00038C22.281 8.83639 22.5034 8.74427 22.7353 8.74427H23.6098V7.86984C23.6098 7.63793 23.7019 7.41551 23.8659 7.25153C24.0299 7.08754 24.2523 6.99541 24.4842 6.99541C24.7161 6.99541 24.9385 7.08754 25.1025 7.25153C25.2665 7.41551 25.3586 7.63793 25.3586 7.86984V8.74427H26.233C26.465 8.74427 26.6874 8.83639 26.8514 9.00038C27.0153 9.16437 27.1075 9.38678 27.1075 9.61869Z" fill="#0D9488"/>
</svg>
