<svg width="16" height="16" viewBox="0 0 16 16" fill="none" xmlns="http://www.w3.org/2000/svg">
<path d="M12.6612 1.99927H3.3318C2.59573 1.99927 1.99902 2.59597 1.99902 3.33204V12.6615C1.99902 13.3975 2.59573 13.9942 3.3318 13.9942H12.6612C13.3973 13.9942 13.994 13.3975 13.994 12.6615V3.33204C13.994 2.59597 13.3973 1.99927 12.6612 1.99927Z" stroke="#06B6D4" stroke-width="1.33277" stroke-linecap="round" stroke-linejoin="round"/>
<path d="M5.99781 7.33034C6.73389 7.33034 7.33059 6.73364 7.33059 5.99757C7.33059 5.2615 6.73389 4.66479 5.99781 4.66479C5.26174 4.66479 4.66504 5.2615 4.66504 5.99757C4.66504 6.73364 5.26174 7.33034 5.99781 7.33034Z" stroke="#06B6D4" stroke-width="1.33277" stroke-linecap="round" stroke-linejoin="round"/>
<path d="M13.9939 9.99576L11.9374 7.93929C11.6875 7.68943 11.3485 7.54907 10.9951 7.54907C10.6417 7.54907 10.3028 7.68943 10.0528 7.93929L3.99805 13.9941" stroke="#06B6D4" stroke-width="1.33277" stroke-linecap="round" stroke-linejoin="round"/>
</svg>
