<svg width="20" height="20" viewBox="0 0 20 20" fill="none" xmlns="http://www.w3.org/2000/svg">
<g clip-path="url(#clip0_29_580)">
<path d="M3.33192 11.6618C3.17429 11.6624 3.01974 11.6182 2.88623 11.5344C2.75273 11.4506 2.64574 11.3306 2.57769 11.1884C2.50965 11.0462 2.48335 10.8876 2.50185 10.7311C2.52035 10.5746 2.58288 10.4265 2.68219 10.3041L10.9288 1.8076C10.9906 1.73619 11.0749 1.68794 11.1678 1.67076C11.2607 1.65358 11.3567 1.6685 11.44 1.71305C11.5233 1.75761 11.589 1.82917 11.6263 1.91597C11.6635 2.00278 11.6702 2.09968 11.6451 2.19077L10.0458 7.20535C9.99864 7.33157 9.9828 7.46735 9.99965 7.60103C10.0165 7.73471 10.0655 7.86232 10.1425 7.97289C10.2195 8.08347 10.3222 8.17371 10.4417 8.23589C10.5612 8.29807 10.6941 8.33033 10.8288 8.32989H16.6597C16.8174 8.32935 16.9719 8.37355 17.1054 8.45735C17.2389 8.54116 17.3459 8.66112 17.414 8.80331C17.482 8.9455 17.5083 9.10408 17.4898 9.26062C17.4713 9.41716 17.4088 9.56524 17.3095 9.68766L9.06288 18.1841C9.00102 18.2555 8.91672 18.3038 8.82382 18.321C8.73093 18.3381 8.63495 18.3232 8.55165 18.2787C8.46834 18.2341 8.40266 18.1626 8.36539 18.0758C8.32811 17.9889 8.32145 17.892 8.34651 17.801L9.94584 12.7864C9.993 12.6602 10.0088 12.5244 9.992 12.3907C9.97515 12.257 9.92613 12.1294 9.84914 12.0188C9.77215 11.9083 9.66948 11.818 9.54994 11.7558C9.43041 11.6937 9.29757 11.6614 9.16283 11.6618H3.33192Z" stroke="#2563EB" stroke-width="1.66597" stroke-linecap="round" stroke-linejoin="round"/>
</g>
<defs>
<clipPath id="clip0_29_580">
<rect width="19.9917" height="19.9917" fill="white"/>
</clipPath>
</defs>
</svg>
