<svg width="20" height="20" viewBox="0 0 20 20" fill="none" xmlns="http://www.w3.org/2000/svg">
<g clip-path="url(#clip0_30_2065)">
<path d="M9.99589 18.3258C14.5964 18.3258 18.3258 14.5964 18.3258 9.99589C18.3258 5.39543 14.5964 1.66602 9.99589 1.66602C5.39543 1.66602 1.66602 5.39543 1.66602 9.99589C1.66602 14.5964 5.39543 18.3258 9.99589 18.3258Z" stroke="#2563EB" stroke-width="1.66597" stroke-linecap="round" stroke-linejoin="round"/>
<path d="M9.99597 14.9938C12.7562 14.9938 14.9939 12.7561 14.9939 9.99585C14.9939 7.23557 12.7562 4.99792 9.99597 4.99792C7.23569 4.99792 4.99805 7.23557 4.99805 9.99585C4.99805 12.7561 7.23569 14.9938 9.99597 14.9938Z" stroke="#2563EB" stroke-width="1.66597" stroke-linecap="round" stroke-linejoin="round"/>
<path d="M9.99605 11.6618C10.9161 11.6618 11.662 10.9159 11.662 9.99581C11.662 9.07572 10.9161 8.32983 9.99605 8.32983C9.07596 8.32983 8.33008 9.07572 8.33008 9.99581C8.33008 10.9159 9.07596 11.6618 9.99605 11.6618Z" stroke="#2563EB" stroke-width="1.66597" stroke-linecap="round" stroke-linejoin="round"/>
</g>
<defs>
<clipPath id="clip0_30_2065">
<rect width="19.9917" height="19.9917" fill="white"/>
</clipPath>
</defs>
</svg>
