<svg width="20" height="20" viewBox="0 0 20 20" fill="none" xmlns="http://www.w3.org/2000/svg">
<g clip-path="url(#clip0_29_1623)">
<path d="M17.4928 9.99588C17.9526 9.99588 18.33 9.62187 18.2842 9.16456C18.0921 7.25216 17.2447 5.46501 15.8854 4.10609C14.5262 2.74717 12.7389 1.9001 10.8264 1.70849C10.3683 1.66267 9.99512 2.04002 9.99512 2.49983V9.16373C9.99512 9.38465 10.0829 9.59652 10.2391 9.75274C10.3953 9.90895 10.6072 9.99671 10.8281 9.99671L17.4928 9.99588Z" stroke="#2563EB" stroke-width="1.66597" stroke-linecap="round" stroke-linejoin="round"/>
<path d="M17.6676 13.2362C17.1376 14.4894 16.3088 15.5937 15.2535 16.4526C14.1981 17.3115 12.9485 17.8988 11.6138 18.1631C10.279 18.4275 8.89988 18.3608 7.59686 17.969C6.29383 17.5773 5.10662 16.8722 4.13902 15.9156C3.17142 14.959 2.45288 13.7799 2.04623 12.4814C1.63959 11.183 1.55721 9.80467 1.8063 8.46702C2.0554 7.12936 2.62838 5.87309 3.47515 4.80803C4.32192 3.74298 5.41671 2.90157 6.66379 2.35736" stroke="#2563EB" stroke-width="1.66597" stroke-linecap="round" stroke-linejoin="round"/>
</g>
<defs>
<clipPath id="clip0_29_1623">
<rect width="19.9917" height="19.9917" fill="white"/>
</clipPath>
</defs>
</svg>
