<svg width="20" height="20" viewBox="0 0 20 20" fill="none" xmlns="http://www.w3.org/2000/svg">
<path d="M12.8924 10.7373L14.1544 17.8394C14.1685 17.923 14.1568 18.0089 14.1208 18.0857C14.0847 18.1625 14.0261 18.2264 13.9527 18.269C13.8794 18.3116 13.7948 18.3307 13.7102 18.3239C13.6257 18.3171 13.5453 18.2846 13.4797 18.2309L10.4976 15.9926C10.3536 15.8851 10.1787 15.827 9.99903 15.827C9.81933 15.827 9.64445 15.8851 9.50048 15.9926L6.51339 18.23C6.44785 18.2837 6.3675 18.3161 6.28307 18.3229C6.19863 18.3298 6.11412 18.3107 6.04081 18.2682C5.9675 18.2258 5.90887 18.162 5.87276 18.0854C5.83664 18.0087 5.82475 17.9229 5.83867 17.8394L7.09981 10.7373" stroke="white" stroke-width="1.66597" stroke-linecap="round" stroke-linejoin="round"/>
<path d="M9.99597 11.6619C12.7562 11.6619 14.9939 9.42422 14.9939 6.66394C14.9939 3.90366 12.7562 1.66602 9.99597 1.66602C7.23569 1.66602 4.99805 3.90366 4.99805 6.66394C4.99805 9.42422 7.23569 11.6619 9.99597 11.6619Z" stroke="white" stroke-width="1.66597" stroke-linecap="round" stroke-linejoin="round"/>
</svg>
