<svg width="20" height="20" viewBox="0 0 20 20" fill="none" xmlns="http://www.w3.org/2000/svg">
<path d="M16.6598 10.8289C16.6598 14.9938 13.7444 17.0763 10.2791 18.2841C10.0977 18.3456 9.90059 18.3427 9.72105 18.2758C6.24749 17.0763 3.33203 14.9938 3.33203 10.8289V4.99797C3.33203 4.77705 3.41979 4.56518 3.57601 4.40896C3.73222 4.25275 3.9441 4.16499 4.16502 4.16499C5.83099 4.16499 7.91346 3.1654 9.36286 1.89926C9.53933 1.74849 9.76382 1.66565 9.99593 1.66565C10.228 1.66565 10.4525 1.74849 10.629 1.89926C12.0867 3.17373 14.1609 4.16499 15.8268 4.16499C16.0478 4.16499 16.2596 4.25275 16.4159 4.40896C16.5721 4.56518 16.6598 4.77705 16.6598 4.99797V10.8289Z" stroke="#059669" stroke-width="1.66597" stroke-linecap="round" stroke-linejoin="round"/>
<path d="M7.49707 9.99581L9.16305 11.6618L12.495 8.32983" stroke="#059669" stroke-width="1.66597" stroke-linecap="round" stroke-linejoin="round"/>
</svg>
