<svg width="28" height="28" viewBox="0 0 28 28" fill="none" xmlns="http://www.w3.org/2000/svg">
<path d="M6.99707 25.6559V4.66469C6.99707 4.04611 7.2428 3.45287 7.6802 3.01547C8.1176 2.57807 8.71085 2.33234 9.32943 2.33234H18.6589C19.2774 2.33234 19.8707 2.57807 20.3081 3.01547C20.7455 3.45287 20.9912 4.04611 20.9912 4.66469V25.6559H6.99707Z" stroke="#D97706" stroke-width="2.33236" stroke-linecap="round" stroke-linejoin="round"/>
<path d="M6.99699 13.9941H4.66463C4.04605 13.9941 3.45281 14.2399 3.01541 14.6773C2.57801 15.1147 2.33228 15.7079 2.33228 16.3265V23.3236C2.33228 23.9422 2.57801 24.5354 3.01541 24.9728C3.45281 25.4102 4.04605 25.6559 4.66463 25.6559H6.99699" stroke="#D97706" stroke-width="2.33236" stroke-linecap="round" stroke-linejoin="round"/>
<path d="M20.9912 10.4956H23.3236C23.9421 10.4956 24.5354 10.7413 24.9728 11.1787C25.4102 11.6161 25.6559 12.2094 25.6559 12.828V23.3236C25.6559 23.9422 25.4102 24.5354 24.9728 24.9728C24.5354 25.4102 23.9421 25.6559 23.3236 25.6559H20.9912" stroke="#D97706" stroke-width="2.33236" stroke-linecap="round" stroke-linejoin="round"/>
<path d="M11.6619 6.99707H16.3266" stroke="#D97706" stroke-width="2.33236" stroke-linecap="round" stroke-linejoin="round"/>
<path d="M11.6619 11.6618H16.3266" stroke="#D97706" stroke-width="2.33236" stroke-linecap="round" stroke-linejoin="round"/>
<path d="M11.6619 16.3265H16.3266" stroke="#D97706" stroke-width="2.33236" stroke-linecap="round" stroke-linejoin="round"/>
<path d="M11.6619 20.9912H16.3266" stroke="#D97706" stroke-width="2.33236" stroke-linecap="round" stroke-linejoin="round"/>
</svg>
