<svg width="28" height="28" viewBox="0 0 28 28" fill="none" xmlns="http://www.w3.org/2000/svg">
<path d="M24.9796 12.737C25.1883 12.6449 25.3655 12.4936 25.4891 12.3018C25.6127 12.11 25.6773 11.8861 25.675 11.658C25.6726 11.4298 25.6034 11.2074 25.4758 11.0182C25.3483 10.829 25.168 10.6813 24.9574 10.5936L14.9621 6.0408C14.6582 5.9022 14.3281 5.83047 13.9942 5.83047C13.6602 5.83047 13.3301 5.9022 13.0262 6.0408L3.03207 10.5889C2.82446 10.6798 2.64784 10.8293 2.52381 11.019C2.39979 11.2087 2.33374 11.4305 2.33374 11.6571C2.33374 11.8838 2.39979 12.1055 2.52381 12.2952C2.64784 12.485 2.82446 12.6344 3.03207 12.7253L13.0262 17.2828C13.3301 17.4214 13.6602 17.4931 13.9942 17.4931C14.3281 17.4931 14.6582 17.4214 14.9621 17.2828L24.9796 12.737Z" stroke="#059669" stroke-width="2.33236" stroke-linecap="round" stroke-linejoin="round"/>
<path d="M25.656 11.6618V18.6589" stroke="#059669" stroke-width="2.33236" stroke-linecap="round" stroke-linejoin="round"/>
<path d="M6.99707 14.5772V18.6589C6.99707 19.5867 7.73426 20.4766 9.04647 21.1327C10.3587 21.7888 12.1384 22.1574 13.9941 22.1574C15.8499 22.1574 17.6296 21.7888 18.9418 21.1327C20.254 20.4766 20.9912 19.5867 20.9912 18.6589V14.5772" stroke="#059669" stroke-width="2.33236" stroke-linecap="round" stroke-linejoin="round"/>
</svg>
