<svg width="28" height="28" viewBox="0 0 28 28" fill="none" xmlns="http://www.w3.org/2000/svg">
<path d="M17.4927 24.4898V15.1603C17.4927 14.851 17.3698 14.5544 17.1511 14.3357C16.9324 14.117 16.6358 13.9941 16.3265 13.9941H11.6618C11.3525 13.9941 11.0559 14.117 10.8372 14.3357C10.6185 14.5544 10.4956 14.851 10.4956 15.1603V24.4898" stroke="#2563EB" stroke-width="2.33236" stroke-linecap="round" stroke-linejoin="round"/>
<path d="M3.49854 11.6618C3.49845 11.3225 3.57239 10.9873 3.7152 10.6796C3.858 10.3718 4.06623 10.0989 4.32536 9.87988L12.4886 2.88397C12.9096 2.52818 13.443 2.33298 13.9941 2.33298C14.5453 2.33298 15.0787 2.52818 15.4997 2.88397L23.6629 9.87988C23.9221 10.0989 24.1303 10.3718 24.2731 10.6796C24.4159 10.9873 24.4898 11.3225 24.4898 11.6618V22.1574C24.4898 22.776 24.244 23.3692 23.8066 23.8066C23.3692 24.244 22.776 24.4898 22.1574 24.4898H5.83089C5.21231 24.4898 4.61907 24.244 4.18167 23.8066C3.74427 23.3692 3.49854 22.776 3.49854 22.1574V11.6618Z" stroke="#2563EB" stroke-width="2.33236" stroke-linecap="round" stroke-linejoin="round"/>
</svg>
