<svg width="40" height="40" viewBox="0 0 40 40" fill="none" xmlns="http://www.w3.org/2000/svg">
<path d="M16.5547 25.8225C16.406 25.246 16.1055 24.7198 15.6845 24.2988C15.2634 23.8778 14.7373 23.5773 14.1607 23.4285L3.94001 20.793C3.76564 20.7435 3.61216 20.6385 3.50288 20.4938C3.3936 20.3492 3.33447 20.1729 3.33447 19.9917C3.33447 19.8104 3.3936 19.6341 3.50288 19.4895C3.61216 19.3448 3.76564 19.2398 3.94001 19.1903L14.1607 16.5531C14.7371 16.4045 15.2631 16.1042 15.6841 15.6835C16.1051 15.2628 16.4057 14.737 16.5547 14.1608L19.1903 3.94002C19.2393 3.76496 19.3442 3.61073 19.4891 3.50086C19.6339 3.391 19.8107 3.33153 19.9925 3.33153C20.1743 3.33153 20.3511 3.391 20.4959 3.50086C20.6407 3.61073 20.7456 3.76496 20.7946 3.94002L23.4285 14.1608C23.5773 14.7373 23.8778 15.2635 24.2988 15.6845C24.7198 16.1055 25.246 16.406 25.8225 16.5548L36.0433 19.1887C36.219 19.2371 36.374 19.3419 36.4845 19.487C36.5949 19.632 36.6548 19.8093 36.6548 19.9917C36.6548 20.174 36.5949 20.3513 36.4845 20.4963C36.374 20.6414 36.219 20.7462 36.0433 20.7946L25.8225 23.4285C25.246 23.5773 24.7198 23.8778 24.2988 24.2988C23.8778 24.7198 23.5773 25.246 23.4285 25.8225L20.793 36.0433C20.744 36.2183 20.6391 36.3726 20.4942 36.4824C20.3494 36.5923 20.1726 36.6518 19.9908 36.6518C19.809 36.6518 19.6322 36.5923 19.4874 36.4824C19.3426 36.3726 19.2376 36.2183 19.1886 36.0433L16.5547 25.8225Z" stroke="#2563EB" stroke-width="3.33194" stroke-linecap="round" stroke-linejoin="round"/>
<path d="M33.3193 4.99791V11.6618" stroke="#2563EB" stroke-width="3.33194" stroke-linecap="round" stroke-linejoin="round"/>
<path d="M36.6514 8.32986H29.9875" stroke="#2563EB" stroke-width="3.33194" stroke-linecap="round" stroke-linejoin="round"/>
<path d="M6.66382 28.3215V31.6534" stroke="#2563EB" stroke-width="3.33194" stroke-linecap="round" stroke-linejoin="round"/>
<path d="M8.32974 29.9875H4.9978" stroke="#2563EB" stroke-width="3.33194" stroke-linecap="round" stroke-linejoin="round"/>
</svg>
