<svg width="28" height="28" viewBox="0 0 28 28" fill="none" xmlns="http://www.w3.org/2000/svg">
<path d="M22.1573 19.8251H24.4897C25.1894 19.8251 25.6559 19.3586 25.6559 18.6589V15.1603C25.6559 14.1108 24.8395 13.1778 23.9066 12.9446C21.8075 12.3615 18.6588 11.6618 18.6588 11.6618C18.6588 11.6618 17.1428 10.0292 16.0932 8.97959C15.5101 8.51312 14.8104 8.16327 13.9941 8.16327H5.83081C5.13111 8.16327 4.54802 8.62974 4.19816 9.21283L2.56551 12.5948C2.41109 13.0452 2.33228 13.518 2.33228 13.9942V18.6589C2.33228 19.3586 2.79875 19.8251 3.49845 19.8251H5.83081" stroke="#0D9488" stroke-width="2.33236" stroke-linecap="round" stroke-linejoin="round"/>
<path d="M8.16317 22.1574C9.45129 22.1574 10.4955 21.1132 10.4955 19.825C10.4955 18.5369 9.45129 17.4927 8.16317 17.4927C6.87504 17.4927 5.83081 18.5369 5.83081 19.825C5.83081 21.1132 6.87504 22.1574 8.16317 22.1574Z" stroke="#0D9488" stroke-width="2.33236" stroke-linecap="round" stroke-linejoin="round"/>
<path d="M10.4956 19.8251H17.4927" stroke="#0D9488" stroke-width="2.33236" stroke-linecap="round" stroke-linejoin="round"/>
<path d="M19.825 22.1574C21.1132 22.1574 22.1574 21.1132 22.1574 19.825C22.1574 18.5369 21.1132 17.4927 19.825 17.4927C18.5369 17.4927 17.4927 18.5369 17.4927 19.825C17.4927 21.1132 18.5369 22.1574 19.825 22.1574Z" stroke="#0D9488" stroke-width="2.33236" stroke-linecap="round" stroke-linejoin="round"/>
</svg>
