<svg width="56" height="56" viewBox="0 0 56 56" fill="none" xmlns="http://www.w3.org/2000/svg">
<path d="M46.6616 30.3301C46.6616 41.9955 38.4958 47.8282 28.7902 51.2112C28.282 51.3834 27.7299 51.3752 27.227 51.1879C17.4981 47.8282 9.33228 41.9955 9.33228 30.3301V13.9985C9.33228 13.3797 9.57808 12.7863 10.0156 12.3488C10.4532 11.9112 11.0466 11.6654 11.6654 11.6654C16.3315 11.6654 22.1642 8.86573 26.2238 5.31944C26.7181 4.89715 27.3468 4.66513 27.9969 4.66513C28.647 4.66513 29.2758 4.89715 29.7701 5.31944C33.853 8.88906 39.6624 11.6654 44.3285 11.6654C44.9473 11.6654 45.5407 11.9112 45.9783 12.3488C46.4158 12.7863 46.6616 13.3797 46.6616 13.9985V30.3301Z" stroke="#059669" stroke-width="4.66617" stroke-linecap="round" stroke-linejoin="round"/>
</svg>
