<svg width="20" height="20" viewBox="0 0 20 20" fill="none" xmlns="http://www.w3.org/2000/svg">
<g clip-path="url(#clip0_45_25)">
<path d="M14.9939 1.66595H4.99801C4.07791 1.66595 3.33203 2.41184 3.33203 3.33193V16.6597C3.33203 17.5798 4.07791 18.3257 4.99801 18.3257H14.9939C15.9139 18.3257 16.6598 17.5798 16.6598 16.6597V3.33193C16.6598 2.41184 15.9139 1.66595 14.9939 1.66595Z" stroke="#06B6D4" stroke-width="1.66597" stroke-linecap="round" stroke-linejoin="round"/>
<path d="M6.66406 4.99792H13.328" stroke="#06B6D4" stroke-width="1.66597" stroke-linecap="round" stroke-linejoin="round"/>
<path d="M13.3281 11.6618V14.9938" stroke="#06B6D4" stroke-width="1.66597" stroke-linecap="round" stroke-linejoin="round"/>
<path d="M13.3281 8.3299H13.3365" stroke="#06B6D4" stroke-width="1.66597" stroke-linecap="round" stroke-linejoin="round"/>
<path d="M9.99609 8.3299H10.0044" stroke="#06B6D4" stroke-width="1.66597" stroke-linecap="round" stroke-linejoin="round"/>
<path d="M6.66406 8.3299H6.67239" stroke="#06B6D4" stroke-width="1.66597" stroke-linecap="round" stroke-linejoin="round"/>
<path d="M9.99609 11.6618H10.0044" stroke="#06B6D4" stroke-width="1.66597" stroke-linecap="round" stroke-linejoin="round"/>
<path d="M6.66406 11.6618H6.67239" stroke="#06B6D4" stroke-width="1.66597" stroke-linecap="round" stroke-linejoin="round"/>
<path d="M9.99609 14.9938H10.0044" stroke="#06B6D4" stroke-width="1.66597" stroke-linecap="round" stroke-linejoin="round"/>
<path d="M6.66406 14.9938H6.67239" stroke="#06B6D4" stroke-width="1.66597" stroke-linecap="round" stroke-linejoin="round"/>
</g>
<defs>
<clipPath id="clip0_45_25">
<rect width="19.9917" height="19.9917" fill="white"/>
</clipPath>
</defs>
</svg>
