<svg width="16" height="16" viewBox="0 0 16 16" fill="none" xmlns="http://www.w3.org/2000/svg">
<g clip-path="url(#clip0_30_4767)">
<path d="M7.99644 3.33193C7.99723 3.06539 7.94471 2.80139 7.84197 2.55545C7.73923 2.30951 7.58836 2.0866 7.39821 1.89982C7.20806 1.71305 6.98248 1.56618 6.73474 1.46786C6.48701 1.36954 6.22211 1.32175 5.95563 1.32731C5.68915 1.33286 5.42647 1.39165 5.18305 1.5002C4.93962 1.60876 4.72036 1.7649 4.53816 1.95944C4.35596 2.15397 4.2145 2.38298 4.1221 2.63299C4.0297 2.88299 3.98823 3.14895 4.00012 3.41523C3.60842 3.51594 3.24477 3.70447 2.93672 3.96654C2.62867 4.2286 2.38429 4.55733 2.22209 4.92782C2.0599 5.29832 1.98414 5.70086 2.00055 6.10497C2.01696 6.50908 2.12512 6.90416 2.31682 7.26028C1.97975 7.53412 1.71469 7.88617 1.54471 8.28581C1.37472 8.68544 1.30495 9.12056 1.34147 9.55331C1.378 9.98606 1.5197 10.4033 1.75426 10.7688C1.98882 11.1343 2.30914 11.437 2.68733 11.6504C2.64063 12.0118 2.6685 12.3789 2.76923 12.729C2.86995 13.0792 3.04138 13.4049 3.27295 13.6862C3.50451 13.9675 3.79128 14.1984 4.11555 14.3645C4.43982 14.5306 4.7947 14.6285 5.15828 14.6521C5.52186 14.6757 5.88642 14.6245 6.22944 14.5017C6.57246 14.3788 6.88666 14.187 7.15264 13.938C7.41861 13.689 7.63071 13.3881 7.77585 13.0539C7.92098 12.7197 7.99606 12.3593 7.99644 11.995V3.33193Z" stroke="#10B981" stroke-width="1.33277" stroke-linecap="round" stroke-linejoin="round"/>
<path d="M7.99708 3.33193C7.99629 3.06539 8.04881 2.80139 8.15155 2.55545C8.25429 2.30951 8.40517 2.0866 8.59532 1.89982C8.78546 1.71305 9.01104 1.56618 9.25878 1.46786C9.50652 1.36954 9.77142 1.32175 10.0379 1.32731C10.3044 1.33286 10.567 1.39165 10.8105 1.5002C11.0539 1.60876 11.2732 1.7649 11.4554 1.95944C11.6376 2.15397 11.779 2.38298 11.8714 2.63299C11.9638 2.88299 12.0053 3.14895 11.9934 3.41523C12.3851 3.51594 12.7488 3.70447 13.0568 3.96654C13.3649 4.2286 13.6092 4.55733 13.7714 4.92782C13.9336 5.29832 14.0094 5.70086 13.993 6.10497C13.9766 6.50908 13.8684 6.90416 13.6767 7.26028C14.0138 7.53412 14.2788 7.88617 14.4488 8.28581C14.6188 8.68544 14.6886 9.12056 14.652 9.55331C14.6155 9.98606 14.4738 10.4033 14.2393 10.7688C14.0047 11.1343 13.6844 11.437 13.3062 11.6504C13.3529 12.0118 13.325 12.3789 13.2243 12.729C13.1236 13.0792 12.9521 13.4049 12.7206 13.6862C12.489 13.9675 12.2022 14.1984 11.878 14.3645C11.5537 14.5306 11.1988 14.6285 10.8352 14.6521C10.4717 14.6757 10.1071 14.6245 9.76408 14.5017C9.42106 14.3788 9.10686 14.187 8.84089 13.938C8.57491 13.689 8.36281 13.3881 8.21768 13.0539C8.07255 12.7197 7.99747 12.3593 7.99708 11.995V3.33193Z" stroke="#10B981" stroke-width="1.33277" stroke-linecap="round" stroke-linejoin="round"/>
<path d="M9.9954 8.66305C9.43593 8.46623 8.94738 8.10794 8.59153 7.63348C8.23569 7.15902 8.02852 6.5897 7.99623 5.9975C7.96394 6.5897 7.75678 7.15902 7.40093 7.63348C7.04509 8.10794 6.55654 8.46623 5.99707 8.66305" stroke="#10B981" stroke-width="1.33277" stroke-linecap="round" stroke-linejoin="round"/>
<path d="M11.7275 4.3315C11.8888 4.05201 11.98 3.73763 11.9934 3.41522" stroke="#10B981" stroke-width="1.33277" stroke-linecap="round" stroke-linejoin="round"/>
<path d="M4 3.41522C4.01318 3.73758 4.10418 4.05195 4.26522 4.3315" stroke="#10B981" stroke-width="1.33277" stroke-linecap="round" stroke-linejoin="round"/>
<path d="M2.31738 7.26096C2.43929 7.16167 2.56975 7.07336 2.70722 6.99707" stroke="#10B981" stroke-width="1.33277" stroke-linecap="round" stroke-linejoin="round"/>
<path d="M13.2861 6.99707C13.4236 7.07336 13.5541 7.16167 13.676 7.26096" stroke="#10B981" stroke-width="1.33277" stroke-linecap="round" stroke-linejoin="round"/>
<path d="M3.99828 11.995C3.53903 11.9952 3.08751 11.8767 2.6875 11.6511" stroke="#10B981" stroke-width="1.33277" stroke-linecap="round" stroke-linejoin="round"/>
<path d="M13.3059 11.6511C12.9059 11.8767 12.4544 11.9952 11.9951 11.995" stroke="#10B981" stroke-width="1.33277" stroke-linecap="round" stroke-linejoin="round"/>
</g>
<defs>
<clipPath id="clip0_30_4767">
<rect width="15.9933" height="15.9933" fill="white"/>
</clipPath>
</defs>
</svg>
