<svg width="16" height="16" viewBox="0 0 16 16" fill="none" xmlns="http://www.w3.org/2000/svg">
<g clip-path="url(#clip0_30_4781)">
<path d="M13.3282 8.66305C13.3282 11.995 10.9959 13.661 8.22369 14.6272C8.07852 14.6764 7.92084 14.6741 7.77721 14.6206C4.99837 13.661 2.66602 11.995 2.66602 8.66305V3.99834C2.66602 3.8216 2.73622 3.6521 2.8612 3.52713C2.98617 3.40216 3.15567 3.33195 3.3324 3.33195C4.66518 3.33195 6.33115 2.53229 7.49066 1.51938C7.63184 1.39876 7.81143 1.33249 7.99712 1.33249C8.1828 1.33249 8.36239 1.39876 8.50357 1.51938C9.66975 2.53895 11.3291 3.33195 12.6618 3.33195C12.8386 3.33195 13.0081 3.40216 13.133 3.52713C13.258 3.6521 13.3282 3.8216 13.3282 3.99834V8.66305Z" stroke="#06B6D4" stroke-width="1.33277" stroke-linecap="round" stroke-linejoin="round"/>
</g>
<defs>
<clipPath id="clip0_30_4781">
<rect width="15.9933" height="15.9933" fill="white"/>
</clipPath>
</defs>
</svg>
