<svg width="20" height="20" viewBox="0 0 20 20" fill="none" xmlns="http://www.w3.org/2000/svg">
<g clip-path="url(#clip0_48_225)">
<path d="M18.1012 14.9937L11.4373 3.33187C11.292 3.07548 11.0813 2.86222 10.8267 2.71385C10.572 2.56548 10.2826 2.4873 9.9879 2.4873C9.6932 2.4873 9.40377 2.56548 9.14915 2.71385C8.89452 2.86222 8.68381 3.07548 8.5385 3.33187L1.8746 14.9937C1.72773 15.2481 1.65072 15.5367 1.65137 15.8304C1.65202 16.1242 1.73031 16.4125 1.87831 16.6662C2.0263 16.9199 2.23874 17.13 2.49409 17.2751C2.74944 17.4202 3.03863 17.4953 3.33233 17.4927H16.6601C16.9524 17.4924 17.2395 17.4152 17.4925 17.2688C17.7455 17.1225 17.9556 16.9121 18.1016 16.6589C18.2476 16.4057 18.3245 16.1185 18.3244 15.8263C18.3243 15.534 18.2473 15.2468 18.1012 14.9937Z" stroke="#EF4444" stroke-width="1.66597" stroke-linecap="round" stroke-linejoin="round"/>
<path d="M9.99609 7.49683V10.8288" stroke="#EF4444" stroke-width="1.66597" stroke-linecap="round" stroke-linejoin="round"/>
<path d="M9.99609 14.1609H10.0044" stroke="#EF4444" stroke-width="1.66597" stroke-linecap="round" stroke-linejoin="round"/>
</g>
<defs>
<clipPath id="clip0_48_225">
<rect width="19.9917" height="19.9917" fill="white"/>
</clipPath>
</defs>
</svg>
