<svg width="20" height="20" viewBox="0 0 20 20" fill="none" xmlns="http://www.w3.org/2000/svg">
<path d="M14.9936 17.4928C16.3737 17.4928 17.4926 16.374 17.4926 14.9938C17.4926 13.6137 16.3737 12.4949 14.9936 12.4949C13.6135 12.4949 12.4946 13.6137 12.4946 14.9938C12.4946 16.374 13.6135 17.4928 14.9936 17.4928Z" stroke="#64748B" stroke-width="1.66597" stroke-linecap="round" stroke-linejoin="round"/>
<path d="M4.99799 7.49695C6.37812 7.49695 7.49695 6.37812 7.49695 4.99799C7.49695 3.61785 6.37812 2.49902 4.99799 2.49902C3.61785 2.49902 2.49902 3.61785 2.49902 4.99799C2.49902 6.37812 3.61785 7.49695 4.99799 7.49695Z" stroke="#64748B" stroke-width="1.66597" stroke-linecap="round" stroke-linejoin="round"/>
<path d="M10.8286 4.99792H13.3276C13.7694 4.99792 14.1932 5.17345 14.5056 5.48588C14.818 5.79831 14.9936 6.22206 14.9936 6.6639V12.4948" stroke="#64748B" stroke-width="1.66597" stroke-linecap="round" stroke-linejoin="round"/>
<path d="M9.16298 14.9938H6.66402C6.22218 14.9938 5.79843 14.8183 5.486 14.5059C5.17357 14.1935 4.99805 13.7697 4.99805 13.3279V7.49695" stroke="#64748B" stroke-width="1.66597" stroke-linecap="round" stroke-linejoin="round"/>
</svg>
