<svg width="22" height="22" viewBox="0 0 22 22" fill="none" xmlns="http://www.w3.org/2000/svg">
<g clip-path="url(#clip0_49_6384)">
<path d="M13.7438 19.2421V11.9118C13.7438 11.6688 13.6473 11.4357 13.4754 11.2639C13.3036 11.092 13.0705 10.9955 12.8275 10.9955H9.16238C8.91937 10.9955 8.6863 11.092 8.51447 11.2639C8.34263 11.4357 8.24609 11.6688 8.24609 11.9118V19.2421" stroke="#64748B" stroke-width="2.29072" stroke-linecap="round" stroke-linejoin="round"/>
<path d="M2.74902 9.16282C2.74896 8.89624 2.80706 8.63286 2.91926 8.39105C3.03146 8.14923 3.19507 7.93481 3.39867 7.76274L9.81267 2.26593C10.1434 1.98638 10.5625 1.83301 10.9956 1.83301C11.4287 1.83301 11.8478 1.98638 12.1785 2.26593L18.5925 7.76274C18.7961 7.93481 18.9597 8.14923 19.0719 8.39105C19.1841 8.63286 19.2422 8.89624 19.2422 9.16282V17.4094C19.2422 17.8954 19.0491 18.3615 18.7054 18.7052C18.3618 19.0489 17.8956 19.242 17.4096 19.242H4.5816C4.09557 19.242 3.62945 19.0489 3.28577 18.7052C2.9421 18.3615 2.74902 17.8954 2.74902 17.4094V9.16282Z" stroke="#64748B" stroke-width="2.29072" stroke-linecap="round" stroke-linejoin="round"/>
</g>
<defs>
<clipPath id="clip0_49_6384">
<rect width="21.9909" height="21.9909" fill="white"/>
</clipPath>
</defs>
</svg>
