<svg width="20" height="20" viewBox="0 0 20 20" fill="none" xmlns="http://www.w3.org/2000/svg">
<g clip-path="url(#clip0_21_1274)">
<path d="M10.1792 1.66602H9.81265C9.3708 1.66602 8.94706 1.84154 8.63463 2.15397C8.3222 2.4664 8.14667 2.89015 8.14667 3.33199V3.48193C8.14637 3.77408 8.06925 4.06101 7.92305 4.31395C7.77684 4.56688 7.5667 4.77692 7.31369 4.923L6.9555 5.13124C6.70224 5.27746 6.41495 5.35444 6.12251 5.35444C5.83007 5.35444 5.54279 5.27746 5.28953 5.13124L5.16458 5.0646C4.78229 4.84408 4.32812 4.78426 3.90177 4.89826C3.47542 5.01227 3.11172 5.29079 2.89052 5.67269L2.70727 5.98922C2.48674 6.37151 2.42692 6.82568 2.54092 7.25203C2.65493 7.67838 2.93345 8.04208 3.31535 8.26328L3.44029 8.34658C3.69209 8.49194 3.90145 8.70067 4.04758 8.95202C4.19372 9.20336 4.27153 9.48858 4.27328 9.77931V10.2041C4.27445 10.4977 4.19802 10.7864 4.05174 11.0409C3.90547 11.2954 3.69453 11.5068 3.44029 11.6535L3.31535 11.7285C2.93345 11.9497 2.65493 12.3134 2.54092 12.7398C2.42692 13.1661 2.48674 13.6203 2.70727 14.0026L2.89052 14.3191C3.11172 14.701 3.47542 14.9795 3.90177 15.0935C4.32812 15.2075 4.78229 15.1477 5.16458 14.9272L5.28953 14.8605C5.54279 14.7143 5.83007 14.6373 6.12251 14.6373C6.41495 14.6373 6.70224 14.7143 6.9555 14.8605L7.31369 15.0688C7.5667 15.2149 7.77684 15.4249 7.92305 15.6778C8.06925 15.9308 8.14637 16.2177 8.14667 16.5099V16.6598C8.14667 17.1016 8.3222 17.5254 8.63463 17.8378C8.94706 18.1502 9.3708 18.3258 9.81265 18.3258H10.1792C10.621 18.3258 11.0448 18.1502 11.3572 17.8378C11.6696 17.5254 11.8451 17.1016 11.8451 16.6598V16.5099C11.8454 16.2177 11.9226 15.9308 12.0688 15.6778C12.215 15.4249 12.4251 15.2149 12.6781 15.0688L13.0363 14.8605C13.2896 14.7143 13.5769 14.6373 13.8693 14.6373C14.1617 14.6373 14.449 14.7143 14.7023 14.8605L14.8272 14.9272C15.2095 15.1477 15.6637 15.2075 16.09 15.0935C16.5164 14.9795 16.8801 14.701 17.1013 14.3191L17.2845 13.9942C17.5051 13.6119 17.5649 13.1578 17.4509 12.7314C17.3369 12.3051 17.0584 11.9414 16.6765 11.7202L16.5515 11.6535C16.2973 11.5068 16.0863 11.2954 15.9401 11.0409C15.7938 10.7864 15.7174 10.4977 15.7185 10.2041V9.78764C15.7174 9.49408 15.7938 9.20542 15.9401 8.9509C16.0863 8.69638 16.2973 8.48503 16.5515 8.33825L16.6765 8.26328C17.0584 8.04208 17.3369 7.67838 17.4509 7.25203C17.5649 6.82568 17.5051 6.37151 17.2845 5.98922L17.1013 5.67269C16.8801 5.29079 16.5164 5.01227 16.09 4.89826C15.6637 4.78426 15.2095 4.84408 14.8272 5.0646L14.7023 5.13124C14.449 5.27746 14.1617 5.35444 13.8693 5.35444C13.5769 5.35444 13.2896 5.27746 13.0363 5.13124L12.6781 4.923C12.4251 4.77692 12.215 4.56688 12.0688 4.31395C11.9226 4.06101 11.8454 3.77408 11.8451 3.48193V3.33199C11.8451 2.89015 11.6696 2.4664 11.3572 2.15397C11.0448 1.84154 10.621 1.66602 10.1792 1.66602Z" stroke="#64748B" stroke-width="1.66597" stroke-linecap="round" stroke-linejoin="round"/>
<path d="M9.99603 12.4949C11.3762 12.4949 12.495 11.376 12.495 9.99591C12.495 8.61577 11.3762 7.49695 9.99603 7.49695C8.61589 7.49695 7.49707 8.61577 7.49707 9.99591C7.49707 11.376 8.61589 12.4949 9.99603 12.4949Z" stroke="#64748B" stroke-width="1.66597" stroke-linecap="round" stroke-linejoin="round"/>
</g>
<defs>
<clipPath id="clip0_21_1274">
<rect width="19.9917" height="19.9917" fill="white"/>
</clipPath>
</defs>
</svg>
