<svg width="20" height="20" viewBox="0 0 20 20" fill="none" xmlns="http://www.w3.org/2000/svg">
<g clip-path="url(#clip0_21_1252)">
<path d="M14.9939 1.66602H4.99801C4.07791 1.66602 3.33203 2.4119 3.33203 3.33199V16.6598C3.33203 17.5799 4.07791 18.3258 4.99801 18.3258H14.9939C15.9139 18.3258 16.6598 17.5799 16.6598 16.6598V3.33199C16.6598 2.4119 15.9139 1.66602 14.9939 1.66602Z" stroke="#64748B" stroke-width="1.66597" stroke-linecap="round" stroke-linejoin="round"/>
<path d="M6.66406 4.99792H13.328" stroke="#64748B" stroke-width="1.66597" stroke-linecap="round" stroke-linejoin="round"/>
<path d="M13.3276 11.6619V14.9938" stroke="#64748B" stroke-width="1.66597" stroke-linecap="round" stroke-linejoin="round"/>
<path d="M13.3276 8.32983H13.336" stroke="#64748B" stroke-width="1.66597" stroke-linecap="round" stroke-linejoin="round"/>
<path d="M9.99609 8.32983H10.0044" stroke="#64748B" stroke-width="1.66597" stroke-linecap="round" stroke-linejoin="round"/>
<path d="M6.66406 8.32983H6.67239" stroke="#64748B" stroke-width="1.66597" stroke-linecap="round" stroke-linejoin="round"/>
<path d="M9.99609 11.6619H10.0044" stroke="#64748B" stroke-width="1.66597" stroke-linecap="round" stroke-linejoin="round"/>
<path d="M6.66406 11.6619H6.67239" stroke="#64748B" stroke-width="1.66597" stroke-linecap="round" stroke-linejoin="round"/>
<path d="M9.99609 14.9938H10.0044" stroke="#64748B" stroke-width="1.66597" stroke-linecap="round" stroke-linejoin="round"/>
<path d="M6.66406 14.9938H6.67239" stroke="#64748B" stroke-width="1.66597" stroke-linecap="round" stroke-linejoin="round"/>
</g>
<defs>
<clipPath id="clip0_21_1252">
<rect width="19.9917" height="19.9917" fill="white"/>
</clipPath>
</defs>
</svg>
