<svg width="20" height="20" viewBox="0 0 20 20" fill="none" xmlns="http://www.w3.org/2000/svg">
<g clip-path="url(#clip0_49_6569)">
<path d="M9.99589 18.3257C14.5964 18.3257 18.3258 14.5963 18.3258 9.99583C18.3258 5.39537 14.5964 1.66595 9.99589 1.66595C5.39543 1.66595 1.66602 5.39537 1.66602 9.99583C1.66602 14.5963 5.39543 18.3257 9.99589 18.3257Z" stroke="#0F172A" stroke-width="1.66597" stroke-linecap="round" stroke-linejoin="round"/>
<path d="M7.57227 7.49685C7.7681 6.94014 8.15465 6.4707 8.66344 6.17168C9.17223 5.87266 9.77043 5.76335 10.3521 5.86312C10.9338 5.96289 11.4613 6.2653 11.8414 6.71678C12.2215 7.16826 12.4295 7.73969 12.4286 8.32984C12.4286 9.99581 9.92962 10.8288 9.92962 10.8288" stroke="#0F172A" stroke-width="1.66597" stroke-linecap="round" stroke-linejoin="round"/>
<path d="M9.99609 14.1608H10.0044" stroke="#0F172A" stroke-width="1.66597" stroke-linecap="round" stroke-linejoin="round"/>
</g>
<defs>
<clipPath id="clip0_49_6569">
<rect width="19.9917" height="19.9917" fill="white"/>
</clipPath>
</defs>
</svg>
