<svg width="28" height="28" viewBox="0 0 28 28" fill="none" xmlns="http://www.w3.org/2000/svg">
<path d="M24.8394 17.8426C25.1003 18.1026 25.3073 18.4115 25.4486 18.7517C25.5899 19.0919 25.6626 19.4567 25.6626 19.8251C25.6626 20.1934 25.5899 20.5582 25.4486 20.8984C25.3073 21.2386 25.1003 21.5475 24.8394 21.8076L21.8073 24.8396C21.5473 25.1006 21.2383 25.3076 20.8981 25.4488C20.5579 25.5901 20.1932 25.6628 19.8248 25.6628C19.4564 25.6628 19.0917 25.5901 18.7515 25.4488C18.4113 25.3076 18.1023 25.1006 17.8423 24.8396L3.14845 10.1458C2.62432 9.6191 2.33008 8.9063 2.33008 8.16327C2.33008 7.42023 2.62432 6.70743 3.14845 6.18076L6.18052 3.14869C6.70719 2.62456 7.41999 2.33032 8.16302 2.33032C8.90605 2.33032 9.61885 2.62456 10.1455 3.14869L24.8394 17.8426Z" stroke="#10B981" stroke-width="2.33236" stroke-linecap="round" stroke-linejoin="round"/>
<path d="M16.9092 14.5772L19.2415 12.2449" stroke="#10B981" stroke-width="2.33236" stroke-linecap="round" stroke-linejoin="round"/>
<path d="M13.4111 11.0787L15.7435 8.74634" stroke="#10B981" stroke-width="2.33236" stroke-linecap="round" stroke-linejoin="round"/>
<path d="M9.91211 7.58016L12.2445 5.2478" stroke="#10B981" stroke-width="2.33236" stroke-linecap="round" stroke-linejoin="round"/>
<path d="M20.4082 18.0758L22.7406 15.7434" stroke="#10B981" stroke-width="2.33236" stroke-linecap="round" stroke-linejoin="round"/>
</svg>
