<svg width="28" height="28" viewBox="0 0 28 28" fill="none" xmlns="http://www.w3.org/2000/svg">
<path d="M13.9946 9.32941C15.9268 9.32941 17.4932 7.76306 17.4932 5.83087C17.4932 3.89868 15.9268 2.33234 13.9946 2.33234C12.0624 2.33234 10.4961 3.89868 10.4961 5.83087C10.4961 7.76306 12.0624 9.32941 13.9946 9.32941Z" stroke="#8B5CF6" stroke-width="2.33236" stroke-linecap="round" stroke-linejoin="round"/>
<path d="M7.58035 9.32941C7.07569 9.33464 6.58635 9.50343 6.18578 9.81043C5.7852 10.1174 5.49502 10.5461 5.35878 11.032L2.44916 21.5743C2.361 21.9155 2.35131 22.2722 2.4208 22.6177C2.4903 22.9632 2.63719 23.2885 2.85042 23.569C3.06366 23.8496 3.3377 24.0782 3.65197 24.2377C3.96624 24.3971 4.31255 24.4833 4.6649 24.4897H23.3238C23.6837 24.4896 24.0388 24.4062 24.3611 24.2459C24.6835 24.0857 24.9643 23.853 25.1818 23.5661C25.3992 23.2793 25.5473 22.9459 25.6144 22.5923C25.6815 22.2386 25.6659 21.8742 25.5687 21.5276L22.6241 11.0787C22.4956 10.5812 22.2065 10.14 21.8016 9.82373C21.3968 9.50742 20.8988 9.33365 20.385 9.32941H7.58035Z" stroke="#8B5CF6" stroke-width="2.33236" stroke-linecap="round" stroke-linejoin="round"/>
</svg>
