<svg width="16" height="16" viewBox="0 0 16 16" fill="none" xmlns="http://www.w3.org/2000/svg">
<g clip-path="url(#clip0_48_3056)">
<path d="M7.33012 14.4806C7.53273 14.5975 7.76256 14.6591 7.99651 14.6591C8.23046 14.6591 8.46029 14.5975 8.6629 14.4806L13.3276 11.815C13.53 11.6982 13.6981 11.5301 13.8151 11.3278C13.9321 11.1254 13.9938 10.8959 13.994 10.6622V5.33106C13.9938 5.09735 13.9321 4.8678 13.8151 4.66545C13.6981 4.46311 13.53 4.29507 13.3276 4.17821L8.6629 1.51266C8.46029 1.39569 8.23046 1.33411 7.99651 1.33411C7.76256 1.33411 7.53273 1.39569 7.33012 1.51266L2.66541 4.17821C2.463 4.29507 2.29489 4.46311 2.17792 4.66545C2.06096 4.8678 1.99926 5.09735 1.99902 5.33106V10.6622C1.99926 10.8959 2.06096 11.1254 2.17792 11.3278C2.29489 11.5301 2.463 11.6982 2.66541 11.815L7.33012 14.4806Z" stroke="#9810FA" stroke-width="1.33277" stroke-linecap="round" stroke-linejoin="round"/>
<path d="M7.99707 14.6606V7.9967" stroke="#9810FA" stroke-width="1.33277" stroke-linecap="round" stroke-linejoin="round"/>
<path d="M2.19238 4.66467L7.99662 7.99661L13.8009 4.66467" stroke="#9810FA" stroke-width="1.33277" stroke-linecap="round" stroke-linejoin="round"/>
<path d="M4.99805 2.84546L10.9955 6.27735" stroke="#9810FA" stroke-width="1.33277" stroke-linecap="round" stroke-linejoin="round"/>
</g>
<defs>
<clipPath id="clip0_48_3056">
<rect width="15.9933" height="15.9933" fill="white"/>
</clipPath>
</defs>
</svg>
