<svg width="28" height="28" viewBox="0 0 28 28" fill="none" xmlns="http://www.w3.org/2000/svg">
<path d="M16.3262 4.66469V16.9562C17.2155 17.4697 17.9105 18.2622 18.3035 19.2109C18.6964 20.1596 18.7654 21.2114 18.4996 22.2033C18.2338 23.1952 17.6482 24.0716 16.8335 24.6968C16.0189 25.3219 15.0207 25.6607 13.9938 25.6607C12.967 25.6607 11.9688 25.3219 11.1541 24.6968C10.3395 24.0716 9.75382 23.1952 9.48805 22.2033C9.22228 21.2114 9.29122 20.1596 9.68418 19.2109C10.0771 18.2622 10.7722 17.4697 11.6615 16.9562V4.66469C11.6615 4.04611 11.9072 3.45287 12.3446 3.01547C12.782 2.57807 13.3752 2.33234 13.9938 2.33234C14.6124 2.33234 15.2056 2.57807 15.643 3.01547C16.0804 3.45287 16.3262 4.04611 16.3262 4.66469Z" stroke="#EF4444" stroke-width="2.33236" stroke-linecap="round" stroke-linejoin="round"/>
</svg>
